<?xml version="1.0" standalone="no"?>
<!DOCTYPE svg PUBLIC "-//W3C//DTD SVG 20010904//EN"
 "http://www.w3.org/TR/2001/REC-SVG-20010904/DTD/svg10.dtd">
<svg version="1.0" xmlns="http://www.w3.org/2000/svg"
 width="1024.000000pt" height="1024.000000pt" viewBox="0 0 1024.000000 1024.000000"
 preserveAspectRatio="xMidYMid meet">
<metadata>
Created by potrace 1.14, written by Peter Selinger 2001-2017
</metadata>
<g transform="translate(0.000000,1024.000000) scale(0.100000,-0.100000)"
fill="#000000" stroke="none">
<path d="M0 5120 l0 -5120 285 0 285 0 0 118 c0 244 21 916 29 930 10 17 15
-50 31 -388 16 -313 24 -333 30 -70 l5 225 7 -250 c5 -137 8 -321 8 -407 l0
-158 580 0 580 0 1 853 c1 856 9 1017 29 575 13 -294 27 -367 29 -150 0 100 5
162 11 162 7 0 9 -130 8 -372 -1 -205 -3 -353 -5 -328 -2 25 -6 61 -10 80 l-6
35 -8 -35 c-12 -50 -18 -183 -24 -522 l-5 -298 294 0 295 0 3 307 c2 170 0
322 -3 338 -5 30 -5 29 -12 -10 -4 -22 -7 -65 -7 -95 0 -30 -4 -60 -8 -67 -4
-6 -7 37 -8 95 0 59 -1 206 -3 327 -1 121 -1 337 0 480 2 258 2 259 10 110 4
-82 6 -248 5 -368 -1 -120 0 -220 2 -222 3 -3 11 0 19 6 9 9 13 40 11 118 -1
83 -3 96 -8 61 -5 -27 -6 -1 -3 65 2 61 6 219 9 352 l5 242 -26 7 c-34 8 -42
29 -37 92 4 53 16 68 25 32 13 -50 36 -9 37 65 1 61 14 24 35 -95 10 -58 23
-109 28 -115 6 -7 8 -5 5 5 -4 13 13 40 26 40 2 0 12 -7 20 -16 14 -14 19 -14
49 1 33 15 81 16 122 0 134 -49 163 -61 182 -73 12 -8 27 -11 32 -8 5 4 12 2
16 -4 3 -5 20 -10 37 -10 25 0 29 3 25 20 -6 24 12 26 53 5 26 -13 30 -21 30
-55 0 -22 6 -42 13 -47 8 -4 19 -17 25 -28 9 -18 12 -16 27 22 16 39 18 41 47
32 17 -4 42 -16 57 -26 14 -9 46 -27 69 -40 43 -23 44 -23 49 -3 7 28 23 25
23 -5 0 -18 11 -32 43 -52 23 -16 50 -36 61 -45 25 -23 150 -88 169 -88 12 0
15 50 21 342 8 434 15 588 29 613 10 19 10 19 17 0 4 -11 10 -236 13 -500 3
-264 9 -489 13 -500 10 -25 29 -45 43 -45 10 0 12 11 17 105 12 265 16 341 24
465 5 80 10 255 11 390 0 135 4 268 8 295 7 51 18 -299 30 -964 4 -260 9 -345
18 -348 10 -4 13 66 16 314 l2 318 3 -321 c2 -296 3 -322 20 -337 10 -10 23
-17 29 -17 6 0 13 -4 15 -8 2 -5 71 -46 153 -92 83 -46 164 -91 180 -101 104
-62 196 -109 211 -109 10 0 14 14 14 48 0 57 9 92 22 92 6 0 8 -9 5 -20 -3
-12 0 -20 8 -20 8 0 15 -23 19 -69 4 -42 13 -74 22 -82 8 -6 16 -10 18 -8 4 4
15 398 18 627 1 73 5 127 10 120 4 -7 8 -31 9 -53 2 -37 3 -35 9 15 4 30 13
86 20 124 7 38 10 84 7 101 -3 17 -1 38 4 46 6 10 9 6 10 -16 0 -16 4 -165 8
-329 5 -218 10 -301 19 -304 7 -2 10 -8 7 -12 -8 -13 21 -243 33 -267 8 -14 8
-23 1 -30 -8 -8 -7 -13 1 -18 7 -4 15 -3 19 2 3 5 14 12 24 16 21 8 23 37 1
37 -23 0 -11 24 15 28 19 3 21 9 20 55 -1 29 1 67 5 85 5 21 4 32 -3 32 -6 0
-11 7 -11 15 0 8 5 15 11 15 6 0 8 8 5 18 -3 9 -2 32 3 49 7 24 6 33 -5 37
-13 5 -13 10 0 35 9 16 21 31 27 33 6 2 14 28 18 58 l7 55 8 -52 c9 -61 26
-80 27 -31 0 31 1 32 10 9 11 -29 18 -106 19 -215 0 -93 11 -96 14 -4 1 53 4
63 19 62 12 -1 17 6 17 25 0 15 7 37 16 49 21 31 37 122 39 227 2 98 -3 132
-16 99 -6 -16 -8 -14 -8 9 -1 15 -8 42 -17 59 -25 48 -37 21 -44 -100 -6 -97
-7 -100 -8 -33 -1 41 -9 101 -19 134 -13 47 -14 66 -5 91 16 43 28 271 15 279
-6 4 -20 -3 -32 -14 -20 -18 -21 -27 -17 -132 2 -62 7 -120 11 -130 4 -11 3
-23 -4 -30 -6 -6 -11 -28 -11 -48 0 -21 -4 -41 -10 -44 -6 -4 -10 11 -10 39 0
27 -6 51 -16 61 -11 11 -13 19 -6 28 5 7 13 66 17 132 6 101 4 128 -9 160 -9
21 -14 45 -11 53 3 8 0 20 -5 28 -9 9 -6 15 9 24 12 6 21 17 21 25 0 26 20 26
30 1 10 -27 19 -30 57 -20 14 4 23 17 27 40 4 18 14 41 23 50 15 15 17 14 30
-8 11 -20 12 -5 7 107 -3 72 -10 155 -16 185 -17 84 -9 160 17 160 20 0 22
-35 18 -217 -5 -161 -2 -186 26 -233 32 -55 33 -67 26 -376 -11 -491 -11 -506
14 -554 12 -23 19 -50 16 -61 -8 -25 15 -137 31 -154 8 -7 14 -19 14 -25 0 -6
5 -21 12 -33 7 -12 11 -35 9 -52 l-3 -30 24 25 c13 14 23 28 21 32 -2 4 5 15
17 25 11 10 20 24 20 31 0 8 12 23 26 34 19 15 22 23 13 28 -9 6 -8 12 4 25
10 9 17 26 17 38 0 12 3 33 7 46 l6 23 13 -23 c7 -13 13 -45 14 -71 0 -25 7
-82 16 -125 9 -43 16 -86 16 -95 -1 -12 7 -18 22 -18 19 0 23 -5 23 -32 0 -18
-4 -39 -10 -45 -18 -23 13 -14 102 30 95 48 150 91 129 101 -10 5 -10 7 0 12
6 3 12 17 12 30 0 31 14 31 28 -1 12 -25 34 -35 30 -13 -2 7 8 14 20 16 20 3
23 8 18 28 -4 16 -2 26 8 30 11 4 15 32 17 122 5 262 7 287 17 278 4 -4 9 -90
12 -190 4 -153 8 -185 22 -199 15 -16 44 -14 58 3 8 9 50 34 125 75 39 21 77
43 85 50 8 7 23 15 33 18 9 4 17 10 17 15 0 5 13 9 29 9 17 0 45 12 67 30 22
16 54 35 73 42 19 6 43 19 53 28 10 9 18 13 18 10 0 -14 60 57 61 72 0 10 2
12 6 4 11 -28 103 1 132 40 12 17 16 18 25 6 6 -8 21 -14 34 -15 17 0 22 5 22
22 0 13 9 28 19 34 27 14 31 13 32 -7 0 -10 3 -13 5 -6 3 7 11 10 19 7 7 -3
16 3 20 15 5 16 14 20 56 19 32 0 57 6 68 16 10 9 23 16 30 16 6 0 31 9 53 20
23 11 54 20 70 20 35 0 48 24 48 89 0 28 5 51 10 51 6 0 10 -23 10 -50 l0 -51
30 16 c17 9 30 22 30 31 0 8 3 13 8 10 9 -5 124 47 163 74 15 11 34 20 42 20
16 0 27 29 27 73 0 34 16 35 24 2 10 -38 30 -40 66 -8 18 15 37 28 43 28 18 0
27 16 28 50 0 17 4 39 9 50 l8 20 8 -20 c13 -33 47 -54 86 -55 32 0 46 8 94
55 50 48 59 53 73 41 9 -7 33 -16 53 -20 21 -4 44 -13 52 -21 8 -8 19 -15 25
-15 19 0 12 -13 -20 -39 l-31 -26 12 -100 c10 -73 11 -173 5 -384 -5 -157 -8
-365 -8 -461 1 -96 0 -215 0 -265 -2 -97 -1 -223 2 -295 1 -25 -1 -114 -5
-198 -4 -106 -2 -152 5 -152 6 0 11 -9 11 -20 0 -20 7 -20 635 -20 l634 0 4
128 3 127 2 -127 c1 -76 6 -128 12 -128 6 0 11 104 13 277 l2 278 3 -277 2
-278 420 0 420 0 0 5120 0 5120 -5120 0 -5120 0 0 -5120z m3098 4953 c6 -10
13 -43 16 -73 4 -30 14 -91 22 -135 15 -84 77 -492 89 -583 4 -30 11 -50 15
-45 4 4 20 87 34 183 57 370 106 654 114 662 5 5 96 7 203 6 l194 -3 2 -748
c1 -412 3 -751 6 -753 2 -3 7 19 11 48 4 29 20 141 36 248 16 107 45 301 65
430 92 617 116 765 123 772 5 5 100 7 213 6 l204 -3 36 -245 c20 -135 51 -337
68 -450 17 -113 50 -335 73 -494 l43 -290 5 740 5 739 155 3 c86 2 192 -2 239
-8 140 -21 256 -92 340 -209 37 -52 38 -48 16 103 -8 55 -12 103 -9 108 9 14
314 10 319 -4 2 -7 11 -65 19 -128 9 -63 38 -283 66 -488 27 -206 50 -381 50
-389 0 -71 26 99 105 687 33 249 44 313 52 321 5 5 198 8 444 7 l434 -3 0
-160 0 -160 -138 -3 -137 -3 2 -192 3 -192 125 -2 c69 -1 131 -2 138 -3 9 0
12 -39 12 -160 l0 -160 -140 0 -140 0 0 -195 0 -194 138 -3 137 -3 3 -157 3
-158 -301 0 -300 0 -1 763 -1 762 -43 -270 c-59 -363 -61 -373 -94 -585 -16
-102 -46 -285 -65 -407 -20 -121 -36 -231 -36 -242 0 -20 -5 -21 -162 -22
-153 -1 -210 0 -215 5 -1 1 -41 233 -88 516 -48 283 -88 517 -91 519 -2 2 -4
-10 -4 -28 0 -78 -68 -221 -142 -297 l-40 -41 43 -144 c23 -79 48 -164 54
-189 7 -25 31 -106 54 -181 23 -74 41 -141 41 -147 0 -18 -309 -17 -315 1 -2
6 -33 127 -70 267 -36 140 -69 263 -71 273 -4 14 -14 17 -37 15 l-32 -3 -3
-282 -2 -283 -299 0 c-277 0 -300 1 -305 18 -2 9 -10 58 -16 107 -19 151 -2
135 -139 135 l-119 0 -5 -32 c-3 -18 -11 -77 -18 -130 l-11 -98 -309 0 -309 0
-1 383 -1 382 -38 -220 c-20 -121 -49 -289 -63 -372 -15 -84 -27 -157 -27
-163 0 -6 -35 -10 -88 -10 l-89 0 -32 194 c-18 107 -48 279 -66 383 l-33 188
-1 -383 -1 -382 -160 2 c-88 2 -160 6 -160 11 0 4 0 396 0 872 l0 865 195 0
c175 0 195 -2 203 -17z m4180 -700 l2 -712 133 -3 c72 -2 131 -6 130 -10 -2
-5 -3 -75 -3 -158 l0 -150 -290 0 -290 0 0 875 0 876 158 -3 157 -3 3 -712z
m685 25 c5 -112 8 -291 7 -398 -1 -108 1 -217 5 -243 6 -41 10 -47 31 -47 17
0 22 -4 17 -16 -5 -13 1 -15 40 -9 39 6 47 4 56 -13 22 -40 13 -90 -19 -119
-28 -24 -31 -33 -29 -78 1 -27 -1 -58 -6 -68 -6 -13 0 -20 28 -32 28 -12 38
-23 46 -52 6 -21 11 -46 11 -55 0 -21 102 -77 108 -59 5 16 20 13 24 -5 2 -13
6 -12 25 5 12 12 27 21 33 21 5 0 10 20 10 44 0 35 4 45 20 49 29 7 25 24 -11
42 -38 20 -42 17 -28 -24 13 -36 7 -46 -38 -73 -19 -11 -34 -14 -43 -8 -12 7
-10 14 11 37 32 35 59 102 59 149 0 26 5 37 18 41 10 2 26 17 37 32 17 26 21
28 49 18 17 -5 36 -14 42 -18 6 -5 14 -5 19 -1 4 4 5 -4 2 -18 -4 -15 0 -38 9
-55 15 -29 14 -31 -10 -52 -29 -25 -32 -33 -12 -33 7 0 26 -12 41 -26 25 -23
27 -30 23 -80 -3 -30 -1 -57 4 -60 4 -3 8 -19 8 -35 0 -18 -4 -28 -10 -24 -6
4 -8 10 -5 14 2 5 -1 16 -9 26 -12 16 -14 16 -34 -10 -29 -37 -28 -52 8 -70
17 -9 30 -24 30 -34 0 -10 7 -24 15 -31 13 -11 15 -7 15 28 0 35 4 43 34 61
20 12 50 21 75 21 26 0 41 5 42 13 0 7 3 6 6 -3 4 -8 13 -20 21 -26 23 -17 24
-118 1 -143 -31 -33 -23 -54 33 -89 l52 -32 22 27 c18 23 28 27 70 25 32 -2
44 1 35 7 -9 6 -2 10 25 13 22 3 42 0 47 -6 5 -8 10 -6 16 4 6 8 13 11 17 7 4
-3 -3 -14 -14 -24 -20 -17 -20 -22 -9 -62 11 -41 10 -44 -13 -63 -21 -17 -23
-22 -10 -30 8 -5 76 -44 150 -88 225 -130 223 -129 216 -146 -8 -22 -20 -564
-12 -564 3 0 52 36 108 80 57 44 108 80 113 80 16 0 257 -68 263 -74 3 -3 -12
-13 -34 -22 -168 -68 -487 -203 -503 -213 -11 -7 -10 -17 8 -54 12 -25 27 -47
34 -50 7 -2 50 11 96 29 46 19 87 34 91 34 4 0 12 -17 18 -37 6 -21 19 -69 30
-108 25 -87 56 -237 77 -375 32 -207 46 -297 65 -410 19 -109 44 -257 75 -450
8 -47 23 -141 35 -210 11 -69 25 -154 30 -190 6 -36 19 -119 30 -185 28 -165
49 -339 41 -346 -3 -3 -91 -2 -196 3 -496 20 -964 39 -1315 53 -212 8 -431 18
-487 21 l-102 6 -5 36 c-3 21 -13 95 -22 166 -8 71 -19 136 -24 145 -4 9 -15
50 -24 91 -8 41 -27 129 -42 195 -24 111 -27 145 -33 466 -4 190 -11 351 -16
359 -6 9 -25 -6 -71 -56 -35 -37 -65 -66 -68 -63 -3 2 4 23 14 47 21 47 22 41
-25 432 -14 118 -30 265 -36 325 -6 61 -16 118 -22 127 -7 10 -113 106 -237
213 -124 108 -227 201 -229 207 -2 7 50 8 165 4 373 -15 853 -37 1099 -51 320
-18 401 -19 421 -2 8 6 20 17 27 22 14 12 222 115 231 115 18 0 102 68 98 79
-6 18 -53 66 -72 74 -8 4 -4 5 10 4 31 -3 43 17 13 21 -13 2 -23 9 -24 15 0 7
-4 2 -10 -11 -7 -18 -14 -22 -31 -16 -34 10 -348 192 -390 225 -20 16 -43 29
-51 29 -7 0 -42 17 -78 38 -35 21 -126 74 -202 118 -76 43 -169 97 -206 119
-125 74 -268 154 -285 161 -14 6 -16 48 -16 455 0 281 4 449 10 449 5 0 18
-10 30 -22 30 -32 27 -101 -5 -140 -30 -35 -30 -44 -7 -83 34 -57 44 -112 37
-201 l-7 -84 45 -42 c25 -24 47 -52 49 -62 6 -38 23 -25 23 18 0 30 6 51 20
66 24 26 30 101 30 367 0 178 -1 193 -19 206 -19 14 -19 15 -1 63 15 39 20 90
26 244 8 218 7 206 16 197 3 -4 11 -98 16 -209z m-5462 -633 c5 4 9 1 9 -5 0
-6 4 -9 9 -6 17 11 21 -42 21 -304 l0 -265 -192 -110 c-105 -60 -212 -122
-237 -136 -25 -14 -129 -74 -231 -134 -102 -59 -198 -115 -215 -125 -383 -221
-465 -271 -465 -282 0 -4 11 -10 25 -14 14 -3 25 -9 25 -13 0 -4 16 -8 35 -9
19 -1 51 -12 72 -25 21 -13 67 -38 104 -54 36 -17 73 -42 82 -56 9 -14 29 -37
43 -50 17 -16 22 -27 15 -31 -21 -14 -11 -22 22 -18 33 4 40 0 188 -93 9 -5
36 -23 60 -39 125 -82 179 -116 232 -147 31 -18 57 -37 57 -41 0 -5 5 -8 11
-8 12 0 41 -18 250 -157 69 -45 128 -83 132 -83 4 0 56 -34 117 -75 61 -41
114 -75 120 -75 5 0 13 -6 17 -13 4 -8 25 -25 45 -39 21 -13 35 -28 30 -33 -4
-4 1 -5 11 -2 9 4 17 2 17 -3 0 -6 6 -9 13 -8 9 2 12 -28 12 -127 -1 -159 -14
-345 -25 -345 -4 0 -20 20 -34 45 -27 45 -46 58 -46 30 0 -8 -10 -17 -22 -20
-75 -17 -714 -145 -727 -145 -15 0 -16 9 -9 78 19 204 36 354 40 357 2 3 28
-5 58 -16 68 -26 72 -20 68 94 -3 87 -4 89 -37 119 l-34 30 -116 -7 c-123 -8
-172 -21 -203 -58 -28 -31 -58 -92 -58 -117 0 -34 -23 -22 -75 40 -27 33 -52
56 -56 52 -11 -13 -41 -255 -45 -367 -5 -151 4 -178 48 -138 17 15 18 14 18
-44 0 -63 -26 -283 -35 -291 -3 -3 -5 4 -5 16 0 12 -4 22 -10 22 -5 0 -16 12
-23 26 l-14 27 -11 -31 c-6 -17 -19 -92 -28 -167 l-18 -135 25 -26 c23 -26 26
-26 119 -21 52 3 165 15 250 27 217 29 395 30 480 1 150 -51 249 -156 286
-303 13 -54 20 -68 35 -68 11 0 19 -5 19 -11 0 -6 -9 -8 -22 -4 -16 6 -20 4
-15 -8 11 -29 17 -245 10 -361 l-8 -119 -65 -13 c-36 -7 -204 -38 -375 -68
-170 -31 -322 -59 -337 -62 l-28 -6 0 62 c0 94 -26 129 -96 130 -47 0 -187
-20 -399 -57 -100 -17 -189 -26 -265 -27 -106 -1 -120 2 -175 27 -81 38 -146
109 -179 195 -38 99 -46 144 -52 282 -6 124 4 238 41 510 9 63 27 198 40 300
13 102 32 237 41 300 12 84 16 176 15 343 -2 211 -4 230 -22 248 -22 22 -22
23 -10 67 8 28 6 36 -15 57 -13 13 -24 33 -24 45 0 13 -7 20 -19 20 -11 0 -21
9 -24 21 -5 19 -11 21 -42 16 -26 -4 -35 -3 -32 6 3 7 10 11 16 9 6 -1 11 2
11 8 0 5 -4 10 -10 10 -19 0 -11 90 11 122 29 40 15 70 -51 103 -122 62 -162
119 -175 249 l-6 61 66 65 c36 36 80 72 98 80 21 10 34 26 41 48 9 31 6 36
-35 78 -24 25 -56 53 -71 62 -16 9 -28 22 -28 29 0 7 -6 13 -13 13 -7 0 -18 9
-25 20 -14 22 -38 26 -45 8 -3 -8 -15 -1 -32 20 -21 25 -34 32 -63 32 -43 0
-97 35 -147 95 -43 53 -45 70 -8 60 16 -3 51 -10 78 -14 28 -4 59 -12 70 -18
11 -6 25 -8 32 -6 7 3 16 -12 23 -37 6 -23 18 -49 26 -58 51 -60 45 -57 119
-52 l69 5 12 56 c12 62 37 99 100 147 47 36 67 38 154 16 47 -12 72 -13 101
-6 28 7 39 7 41 -2 0 -6 6 54 13 134 9 115 12 132 15 80 4 -94 17 -203 19
-160 2 34 18 66 34 68 31 3 68 16 74 25 9 13 37 32 69 46 12 5 24 19 27 30 3
12 16 23 33 26 41 9 104 37 104 46 0 4 26 22 58 40 47 27 54 34 37 39 -11 3
-31 11 -45 17 -14 6 -33 14 -43 17 -17 6 -34 33 -25 42 3 2 18 -2 34 -11 41
-21 97 -19 119 5 10 11 22 17 27 14 6 -4 7 2 3 15 -5 15 -1 23 12 27 42 13 63
28 52 35 -6 4 -8 12 -5 18 11 17 23 5 30 -29 4 -21 0 -39 -10 -56 -15 -22 -12
-29 10 -25 5 1 3 -5 -4 -14 -11 -13 -10 -15 1 -11 8 3 43 7 79 11 75 7 100 24
100 71 0 31 21 64 41 64 6 0 7 5 4 10 -3 6 -19 10 -35 10 -43 0 -46 18 -4 26
26 5 39 3 46 -7 8 -11 9 -10 4 4 -4 12 0 17 12 17 10 0 27 6 38 14 13 10 23
11 31 4 18 -15 16 -28 -4 -28 -24 -1 -66 -37 -58 -50 3 -5 14 -10 23 -10 21 0
86 39 79 47 -4 3 0 12 8 19 12 13 64 21 136 23 15 1 37 10 50 21 21 17 22 21
9 30 -11 7 -2 8 30 4 40 -5 50 -3 77 20 17 14 36 26 41 26 6 0 15 8 21 17 5
10 12 15 16 11 12 -11 45 31 46 60 2 23 2 24 6 4 2 -12 9 -20 14 -17z m-664
-201 c-3 -3 -12 -4 -19 -1 -8 3 -5 6 6 6 11 1 17 -2 13 -5z m6851 -210 c53
-11 46 -31 -8 -27 -42 2 -52 -1 -68 -22 -19 -24 -32 -24 -32 2 0 7 6 13 13 13
8 0 22 9 32 20 20 22 20 22 63 14z m-48 -109 c33 -17 31 -45 -4 -45 -30 1 -58
24 -50 44 8 20 17 20 54 1z m117 -22 c-20 -14 -37 -30 -37 -35 0 -4 -9 -8 -20
-8 -11 0 -20 5 -20 10 0 6 6 10 14 10 7 0 20 7 27 16 13 16 44 32 64 33 5 1
-7 -11 -28 -26z m231 -18 c-3 -3 -9 2 -12 12 -6 14 -5 15 5 6 7 -7 10 -15 7
-18z m-5289 -193 c-4 -26 -9 -78 -9 -117 l-2 -70 -10 45 c-12 60 -15 271 -4
289 15 24 34 -91 25 -147z m1341 -173 c0 -17 -4 -28 -10 -24 -5 3 -10 17 -10
31 0 13 5 24 10 24 6 0 10 -14 10 -31z m22 -744 c7 -7 9 3 26 125 9 65 9 64
11 -50 2 -63 6 -137 11 -165 l7 -50 2 55 c2 30 6 75 10 100 5 28 9 -63 10
-240 0 -169 -3 -291 -9 -300 -7 -10 -10 25 -10 107 0 70 -4 124 -10 128 -6 4
-10 -23 -11 -72 0 -43 -4 -100 -9 -128 l-7 -50 -2 40 c-5 106 -13 210 -17 214
-2 2 -4 -179 -4 -403 0 -388 1 -413 22 -495 20 -76 22 -111 22 -316 0 -213 -2
-235 -23 -305 -22 -70 -24 -96 -28 -368 -4 -254 -3 -298 11 -333 14 -34 14
-44 4 -57 -14 -16 -14 -19 -17 -96 l-1 -50 -157 -150 c-333 -318 -379 -366
-364 -375 10 -7 6 -10 -16 -15 -29 -7 -88 -59 -333 -295 -58 -55 -107 -101
-110 -101 -3 0 -40 174 -83 388 -43 213 -98 482 -121 597 -24 116 -70 338
-101 495 -32 157 -61 289 -65 293 -7 8 -19 -157 -22 -298 -3 -129 4 -385 11
-385 4 0 12 17 17 38 8 31 11 14 17 -107 5 -86 14 -158 23 -179 24 -59 10
-247 -21 -279 -19 -18 -21 -31 -37 -183 l-12 -125 -12 65 c-6 36 -12 61 -13
57 -37 -241 -53 -376 -60 -522 l-10 -179 -63 -61 c-35 -34 -144 -122 -243
-195 -337 -250 -360 -267 -393 -300 -19 -17 -36 -29 -39 -27 -4 5 30 522 62
922 9 105 20 253 25 330 l10 140 38 32 c20 18 41 33 46 33 4 0 22 11 40 26 17
14 60 46 95 71 35 26 66 55 69 65 2 10 12 18 21 18 14 0 94 50 111 70 3 3 48
36 102 73 94 65 97 68 107 118 6 29 10 53 8 55 -4 4 -482 -79 -551 -96 -22 -5
-43 -7 -47 -4 -9 5 -3 112 17 289 8 72 23 270 34 440 31 473 50 728 55 734 3
2 26 -6 53 -18 26 -12 70 -28 97 -35 28 -8 84 -26 125 -40 41 -14 232 -78 424
-141 192 -64 357 -120 366 -125 15 -8 43 -100 55 -180 12 -80 76 -436 81 -450
4 -12 9 -9 19 10 8 14 14 33 15 43 0 10 5 15 10 12 13 -8 3 -43 -16 -63 -12
-12 -18 -35 -17 -67 1 -21 63 -379 66 -382 5 -5 17 548 17 790 l0 207 28 -6
c15 -3 79 -24 142 -46 211 -74 262 -90 267 -84 4 3 4 7 2 9 -7 5 -332 208
-354 220 -11 6 -35 21 -52 32 l-33 20 0 119 c0 101 2 117 15 112 13 -5 15 15
15 139 0 85 -4 146 -10 150 -5 3 -10 13 -10 21 0 8 4 12 10 9 6 -4 11 135 12
397 l3 403 215 0 c118 0 249 1 291 3 l76 2 11 178 c7 97 14 256 17 352 10 363
20 362 25 -2 3 -190 8 -349 12 -353z m-2506 273 c71 -24 134 -66 186 -123 36
-40 115 -203 131 -268 13 -56 17 -450 5 -462 -7 -7 -36 9 -148 80 -19 12 -96
60 -170 105 -157 96 -619 382 -670 415 -57 37 -236 148 -287 179 -94 56 -85
61 171 76 100 6 240 15 311 20 72 4 191 7 265 5 112 -2 147 -7 206 -27z m-793
-202 c3 3 19 -3 35 -15 17 -12 33 -21 36 -21 4 0 19 -8 34 -19 25 -17 243
-153 284 -176 9 -5 62 -39 117 -75 56 -36 117 -74 136 -86 19 -11 46 -30 60
-42 14 -12 28 -22 33 -22 4 1 33 -18 65 -41 47 -35 56 -46 51 -63 -6 -18 -5
-19 10 -7 14 11 16 11 16 -2 0 -9 9 -19 20 -22 24 -8 27 -25 4 -25 -8 0 -12 5
-9 10 3 6 2 10 -3 10 -16 0 -22 -13 -11 -26 15 -19 -223 121 -350 205 -36 24
-75 47 -87 51 -11 5 -28 15 -36 23 -8 8 -34 25 -59 37 -24 13 -54 30 -65 39
-12 9 -30 21 -40 28 -155 101 -275 183 -294 201 -13 12 -27 22 -32 22 -4 0 -8
8 -8 18 0 13 2 14 9 3 5 -8 11 -9 15 -3 3 6 1 14 -5 18 -8 4 -7 9 2 15 9 5 23
0 40 -17 14 -13 28 -21 32 -18z m1313 -103 c-3 -3 -13 0 -22 8 -14 12 -14 14
3 27 16 11 18 11 21 -8 2 -12 1 -24 -2 -27z m3814 -75 c-29 -110 -120 -273
-120 -215 0 49 122 318 137 303 3 -3 -4 -42 -17 -88z m-3891 -176 c22 -43 65
-191 58 -199 -16 -16 -139 237 -153 314 l-6 38 41 -58 c23 -32 50 -75 60 -95z
m931 49 c14 -53 116 -625 131 -736 7 -49 24 -157 39 -240 15 -82 26 -152 23
-155 -2 -2 -12 1 -21 7 -15 10 -124 78 -354 222 -32 20 -86 53 -120 75 -70 43
-101 62 -203 128 -38 25 -121 75 -183 113 -62 37 -116 75 -121 84 -4 9 -4 52
1 96 4 44 13 149 20 233 6 83 14 152 17 152 4 0 19 -11 35 -25 16 -14 33 -25
38 -25 4 0 8 22 8 48 0 27 3 52 7 55 3 4 156 7 339 7 l333 0 11 -39z m2813
-41 c10 -41 28 -115 42 -165 13 -49 35 -142 50 -205 15 -63 58 -241 95 -395
38 -154 71 -296 75 -316 12 -64 20 -68 59 -30 20 19 37 33 40 30 2 -2 31 -119
65 -259 34 -140 68 -280 76 -310 8 -30 30 -120 49 -200 19 -80 49 -203 66
-274 17 -70 29 -131 26 -133 -3 -3 -123 0 -268 6 -345 15 -388 14 -366 -2 9
-7 65 -19 125 -26 59 -7 187 -24 283 -38 96 -14 195 -29 220 -32 34 -5 46 -11
48 -26 2 -11 46 -194 98 -407 52 -213 94 -394 94 -402 0 -10 -29 1 -92 36 -96
52 -168 91 -321 172 -49 26 -91 45 -93 43 -10 -10 10 -38 23 -33 9 4 11 2 7
-6 -5 -8 -2 -9 9 -5 9 3 16 2 14 -3 -1 -5 59 -54 133 -110 74 -55 150 -113
169 -128 19 -15 44 -34 57 -42 138 -93 143 -98 168 -215 15 -70 151 -629 205
-845 16 -63 27 -117 25 -120 -4 -4 -785 89 -791 94 -1 1 -14 58 -29 126 -14
68 -32 129 -38 136 -7 6 -25 61 -40 120 -53 206 -98 369 -107 384 -6 11 -8 4
-9 -22 0 -48 -16 -57 -24 -14 -4 19 -11 36 -17 38 -5 2 -11 20 -12 41 -2 29
-7 39 -22 42 -21 4 -553 37 -639 39 l-51 1 -45 -405 -45 -405 -305 3 c-168 1
-342 5 -388 8 l-83 6 6 41 c3 23 21 155 41 292 19 138 39 282 44 320 5 39 28
195 50 348 22 153 40 282 40 288 0 5 -12 1 -27 -8 l-28 -18 18 25 c9 14 24 34
32 46 8 11 24 83 35 165 22 164 26 186 46 324 15 106 64 471 64 481 0 4 -12 3
-27 0 -27 -7 -27 -6 5 13 17 12 32 25 32 30 0 5 20 153 45 328 25 175 54 383
65 463 11 80 35 258 54 395 19 138 40 288 46 334 13 97 30 71 -130 201 -177
143 -290 242 -286 248 2 4 300 7 663 7 l658 -1 18 -74z m-4568 -426 c20 -8 45
-56 45 -88 0 -20 -5 -24 -23 -22 -13 1 -28 6 -35 10 -7 4 -77 7 -155 7 -78 -1
-149 3 -157 9 -23 14 35 58 95 69 86 18 203 25 230 15z m1628 -501 c-7 -3 -23
5 -35 17 l-23 22 35 -17 c19 -10 30 -20 23 -22z m42 -14 c11 -16 1 -19 -13 -3
-7 8 -8 14 -3 14 5 0 13 -5 16 -11z m-1448 -151 c-3 -8 -6 -5 -6 6 -1 11 2 17
5 13 3 -3 4 -12 1 -19z m2141 -281 c17 -10 32 -21 32 -23 0 -2 -15 -1 -32 2
l-33 6 33 -22 c17 -12 32 -23 32 -25 0 -2 -31 5 -70 16 -38 10 -72 19 -74 19
-3 0 -10 19 -16 43 -6 23 -14 50 -17 60 -4 15 8 11 54 -19 32 -20 73 -46 91
-57z m762 26 c0 -10 -4 -24 -9 -31 -6 -10 -10 -8 -14 9 -3 12 -4 26 -1 31 9
14 24 9 24 -9z m-3650 -87 c0 -3 -4 -8 -10 -11 -5 -3 -10 -1 -10 4 0 6 5 11
10 11 6 0 10 -2 10 -4z m6002 -78 c2 -21 0 -38 -4 -38 -4 0 -7 24 -7 53 1 54
5 49 11 -15z m-2272 -46 c0 -14 -39 -46 -47 -39 -3 4 2 16 12 27 19 21 35 26
35 12z m-257 -38 c4 -23 3 -24 -10 -11 -9 8 -12 20 -9 26 10 16 13 14 19 -15z
m2551 17 c3 -5 0 -11 -8 -14 -15 -6 -26 1 -26 15 0 11 27 10 34 -1z m-2519
-61 c3 -5 -1 -10 -10 -10 -9 0 -13 5 -10 10 3 6 8 10 10 10 2 0 7 -4 10 -10z
m15 -36 c0 -8 -5 -12 -10 -9 -6 4 -8 11 -5 16 9 14 15 11 15 -7z m250 -74 c0
-5 -9 -14 -20 -20 -22 -12 -27 -1 -8 18 14 14 28 16 28 2z m140 -30 c0 -5 -4
-10 -10 -10 -5 0 -10 5 -10 10 0 6 5 10 10 10 6 0 10 -4 10 -10z m-2772 -99
c52 -45 192 -208 192 -224 0 -10 -35 8 -63 33 -12 11 -39 32 -59 47 -36 27
-148 174 -148 194 0 14 15 4 78 -50z m2712 29 c0 -5 -4 -10 -10 -10 -5 0 -10
5 -10 10 0 6 5 10 10 10 6 0 10 -4 10 -10z m-4847 -1057 c-9 -162 -10 -141
-10 247 l0 425 10 -247 c6 -158 6 -312 0 -425z m7920 570 c-7 -2 -19 -2 -25 0
-7 3 -2 5 12 5 14 0 19 -2 13 -5z m-5702 -15 c14 1 34 -5 45 -13 17 -13 15
-14 -33 -15 -57 0 -103 13 -103 31 0 7 11 8 33 3 17 -4 44 -7 58 -6z m2279
-19 c0 -5 -4 -9 -10 -9 -5 0 -10 7 -10 16 0 8 5 12 10 9 6 -3 10 -10 10 -16z
m-1733 -5 c-3 -3 -12 -4 -19 -1 -8 3 -5 6 6 6 11 1 17 -2 13 -5z m-62 -16
c-16 -6 -34 -17 -38 -24 -4 -7 -24 -21 -45 -30 -20 -8 -45 -20 -54 -25 -10 -5
-27 -9 -38 -9 -12 0 -19 -4 -16 -9 7 -11 -41 -24 -54 -16 -6 4 -10 2 -10 -4 0
-5 5 -13 10 -16 6 -3 10 -11 10 -17 0 -11 -54 27 -103 72 l-27 25 82 18 c149
31 232 45 273 45 l40 0 -30 -10z m1801 -33 c14 -34 12 -55 -5 -55 -10 0 -32
71 -25 82 9 14 15 9 30 -27z m3014 -25 c276 -35 1030 -133 1190 -156 153 -21
310 -42 435 -57 107 -12 110 -13 107 -37 -4 -41 -45 -110 -85 -147 -108 -97
-239 -114 -507 -65 -269 49 -611 105 -616 100 -2 -3 5 -72 17 -154 11 -82 24
-194 30 -249 5 -55 16 -145 24 -200 25 -162 54 -389 51 -392 -1 -1 -27 10 -57
26 -295 154 -614 319 -731 378 -38 19 -68 36 -68 39 0 24 -96 865 -106 922
l-5 34 38 -6 c21 -3 148 -20 283 -36z m-5380 -20 c0 -5 -4 -10 -10 -10 -5 0
-10 5 -10 10 0 6 5 10 10 10 6 0 10 -4 10 -10z m2255 1 c-3 -5 -1 -12 5 -16
25 -15 2 -66 -54 -120 -31 -30 -60 -55 -64 -55 -4 0 -28 -19 -54 -43 -25 -23
-67 -57 -92 -76 -44 -32 -57 -51 -36 -51 6 0 29 17 53 38 23 21 58 49 77 63
45 31 85 65 131 112 l36 37 7 -112 c9 -142 6 -928 -3 -928 -4 0 -15 -15 -24
-32 -9 -18 -23 -42 -29 -53 -7 -10 -29 -46 -49 -80 -20 -33 -82 -135 -138
-226 -55 -92 -101 -169 -101 -172 0 -8 -59 -95 -68 -101 -4 -2 -86 -6 -182 -7
l-174 -3 -8 35 c-17 79 -178 877 -178 882 0 9 233 218 270 242 19 13 44 31 55
42 11 10 36 30 55 43 51 36 164 131 173 147 4 7 13 13 20 13 18 1 59 38 55 51
-2 6 -15 2 -31 -11 -16 -12 -30 -20 -33 -17 -3 3 8 13 25 23 17 10 31 24 31
31 0 7 3 13 8 13 4 0 25 16 46 35 35 31 39 40 14 36 -20 -3 1 21 109 126 69
67 123 111 131 108 7 -2 10 0 7 5 -6 10 1 30 11 30 3 0 3 -4 -1 -9z m-2502
-68 c-7 -2 -21 -2 -30 0 -10 3 -4 5 12 5 17 0 24 -2 18 -5z m-68 -13 c-3 -5
-14 -11 -23 -11 -9 -1 -3 -5 13 -9 24 -6 26 -8 8 -9 -26 -1 -29 -13 -10 -33
20 -20 27 -46 14 -52 -7 -2 -1 -5 12 -5 67 -2 -42 -31 -271 -71 -95 -16 -177
-30 -184 -30 -6 0 -24 19 -41 43 -17 23 -41 52 -53 65 -12 13 -20 25 -19 26 5
4 83 19 249 47 322 55 314 54 305 39z m288 -187 c-10 -7 -36 -27 -58 -43 -22
-17 -92 -69 -155 -115 -63 -46 -119 -88 -125 -93 -5 -4 -37 -27 -70 -50 -33
-22 -134 -95 -225 -160 -91 -66 -166 -119 -168 -117 -3 3 15 175 28 265 5 36
14 101 20 146 14 92 24 118 40 94 7 -11 10 -11 10 -2 0 7 6 12 13 11 6 -1 25
3 41 10 16 6 35 10 42 7 7 -3 14 -1 16 4 2 6 39 13 83 16 44 4 83 11 86 17 4
5 58 11 120 13 63 2 128 8 144 13 17 5 56 12 87 16 33 4 62 13 70 22 11 14 13
13 16 -12 3 -20 -2 -33 -15 -42z m2563 31 c-10 -14 -20 -23 -23 -20 -3 3 2 17
11 32 10 14 20 23 23 20 3 -3 -2 -17 -11 -32z m-612 -89 c-4 -8 -11 -15 -16
-15 -6 0 -5 6 2 15 7 8 14 15 16 15 2 0 1 -7 -2 -15z m616 -39 c0 -2 -7 -6
-15 -10 -8 -3 -15 -1 -15 4 0 6 7 10 15 10 8 0 15 -2 15 -4z m-735 -92 c-30
-27 -50 -32 -41 -8 3 9 6 18 6 20 0 2 9 4 20 4 11 0 20 5 20 11 0 5 5 7 10 4
7 -4 1 -16 -15 -31z m518 4 c5 -19 5 -19 -14 -2 -22 20 -25 36 -5 28 8 -3 16
-14 19 -26z m-4065 -85 c-1 -101 -2 -104 -8 -43 -6 59 -3 150 6 150 2 0 3 -48
2 -107z m712 41 c0 -3 -49 -58 -108 -123 -182 -195 -170 -172 -171 -310 -1
-70 -9 -123 -31 -208 -35 -134 -39 -209 -11 -245 l20 -24 -81 -70 c-44 -38
-92 -81 -107 -95 -14 -14 -53 -48 -86 -75 -104 -86 -185 -160 -185 -171 0 -6
197 136 515 372 61 45 124 89 141 98 17 9 55 36 83 61 29 24 109 84 178 133
69 48 173 123 231 167 108 80 256 189 414 303 87 63 115 76 105 49 -3 -8 -13
-101 -21 -208 -9 -106 -19 -213 -22 -238 -3 -25 -9 -112 -15 -195 -5 -82 -12
-182 -15 -221 -5 -56 -3 -76 9 -95 24 -35 7 -92 -39 -140 -43 -44 -54 -48 -54
-19 0 18 -3 19 -22 9 -13 -6 -48 -37 -78 -68 -67 -69 -116 -103 -240 -168
-161 -84 -236 -107 -555 -172 -165 -33 -349 -72 -410 -86 -196 -47 -274 -57
-377 -53 -83 4 -106 9 -160 36 -35 17 -76 45 -92 61 l-30 31 24 25 c13 14 27
25 32 25 5 0 20 10 34 23 l25 23 -18 70 c-13 52 -17 108 -17 224 1 171 18 297
112 850 26 152 30 166 53 177 13 6 166 48 339 92 173 44 380 98 460 120 153
41 170 45 170 35z m5513 -65 c34 -17 65 -36 68 -41 3 -5 8 -8 10 -7 2 2 63
-28 136 -66 l132 -70 -27 -17 c-15 -10 -35 -18 -45 -18 -9 0 -91 56 -182 125
-91 69 -163 125 -160 125 3 0 34 -14 68 -31z m-4938 -69 c-4 -6 -10 -8 -15 -5
-5 3 -11 1 -15 -5 -3 -5 -16 -15 -28 -21 -16 -8 -15 -4 7 15 28 25 64 36 51
16z m2785 -19 c0 -6 -4 -13 -10 -16 -5 -3 -10 1 -10 9 0 9 5 16 10 16 6 0 10
-4 10 -9z m2858 -378 c10 -10 25 -19 33 -21 8 -2 25 -14 40 -28 14 -13 35 -24
48 -24 12 0 19 -4 16 -10 -4 -6 7 -13 24 -16 18 -4 28 -11 24 -17 -4 -6 0 -8
11 -4 10 4 15 3 11 -3 -7 -11 25 -29 43 -23 8 3 10 -1 5 -13 -5 -14 -2 -16 15
-12 13 4 20 2 19 -6 -1 -6 6 -10 15 -10 10 1 15 -3 11 -9 -4 -6 2 -8 15 -5 12
4 20 2 16 -3 -3 -5 -1 -9 5 -9 5 0 24 -13 42 -30 18 -16 36 -27 41 -24 4 3 8
0 8 -6 0 -7 7 -9 16 -6 10 4 22 -1 30 -12 7 -10 43 -36 80 -58 36 -21 69 -44
71 -51 3 -8 16 -10 34 -6 40 8 45 -8 75 -271 14 -121 32 -270 39 -331 7 -60
11 -112 9 -113 -1 -2 -65 7 -141 21 -76 14 -198 35 -271 48 l-132 23 -99 160
c-220 360 -198 312 -216 471 -40 358 -41 376 -20 391 10 7 22 11 26 8 5 -3 9
0 9 5 0 17 28 13 48 -6z m637 -241 c-5 -5 -135 62 -135 70 0 4 31 -10 69 -30
38 -20 68 -38 66 -40z m115 -52 c30 -17 48 -30 40 -30 -8 0 -37 14 -65 30 -65
38 -46 38 25 0z m-3686 -459 c-8 -8 -284 -14 -284 -6 0 3 64 113 143 243 l142
237 3 -234 c1 -129 0 -237 -4 -240z m-1422 397 c5 -63 -18 -487 -27 -496 -4
-4 -254 -35 -435 -53 -58 -5 -111 -12 -117 -14 -7 -2 -13 -2 -13 0 0 6 47 52
57 56 4 2 31 29 58 59 28 30 53 54 58 52 4 -1 12 9 17 23 5 14 13 25 17 24 19
-3 31 2 37 17 3 8 2 12 -4 9 -6 -3 -7 1 -4 9 3 9 12 16 18 16 18 0 58 45 49
55 -5 4 -1 6 8 2 13 -4 16 -1 11 15 -3 14 -1 19 6 14 7 -4 12 -4 12 1 0 4 16
26 35 47 19 22 35 36 35 31 0 -4 8 3 19 16 36 46 90 99 100 99 5 0 18 16 27
35 9 19 20 35 24 35 5 0 10 -24 12 -52z m422 -201 c-4 -513 -17 -1327 -21
-1323 -4 4 -7 1251 -3 1511 0 31 2 36 13 26 9 -9 12 -64 11 -214z m-697 108
c-7 -14 -15 -25 -19 -25 -5 0 -8 -6 -8 -14 0 -21 -51 -107 -67 -113 -11 -4
-12 -8 -3 -13 17 -10 3 -30 -20 -30 -11 0 -20 -10 -24 -25 -4 -16 -11 -22 -21
-19 -11 5 -13 2 -9 -10 5 -12 2 -15 -12 -9 -14 5 -16 3 -11 -11 4 -10 3 -15
-3 -11 -5 3 -15 -3 -22 -15 -7 -11 -20 -20 -28 -20 -8 0 -27 -11 -41 -24 -19
-17 -33 -22 -53 -19 -24 5 -25 6 -9 18 17 13 17 14 1 20 -10 4 -15 11 -12 16
3 6 0 16 -6 24 -10 12 -5 22 27 52 22 21 46 43 55 48 8 6 40 29 71 52 59 45
215 153 221 153 2 0 -1 -11 -7 -25z m-270 -361 c-3 -3 -12 -4 -19 -1 -8 3 -5
6 6 6 11 1 17 -2 13 -5z m6763 -505 c0 -10 -4 -19 -10 -19 -5 0 -10 12 -10 26
0 14 4 23 10 19 6 -3 10 -15 10 -26z m-3264 -289 c5 -30 8 -32 14 -15 6 13 8
-5 8 -50 -1 -38 -3 -53 -5 -32 -6 51 -23 37 -24 -21 l-2 -47 -7 55 c-4 30 -5
98 -1 150 4 65 7 79 9 45 1 -27 5 -66 8 -85z m-3154 -123 c-9 -18 -11 -14 -11
28 1 46 1 48 11 22 7 -20 7 -35 0 -50z m2888 -154 c0 -57 -4 -105 -10 -108
-10 -6 -14 13 -12 45 1 8 2 55 3 104 2 124 19 88 19 -41z m287 95 c-3 -7 -5
-2 -5 12 0 14 2 19 5 13 2 -7 2 -19 0 -25z m-218 -5 c0 -5 -4 -17 -9 -28 -8
-18 -9 -17 -9 8 -1 15 4 27 9 27 6 0 10 -3 9 -7z m46 -39 c-4 -63 -15 -68 -15
-6 0 29 4 52 9 52 5 0 8 -20 6 -46z m3686 -244 l-8 -145 0 190 c-1 134 2 177
8 145 5 -25 5 -109 0 -190z m-4984 198 c-3 -8 -6 -5 -6 6 -1 11 2 17 5 13 3
-3 4 -12 1 -19z m1240 -25 c-3 -10 -5 -2 -5 17 0 19 2 27 5 18 2 -10 2 -26 0
-35z m3800 -125 c-2 -29 -3 -8 -3 47 0 55 1 79 3 53 2 -26 2 -71 0 -100z
m-7720 15 c-2 -21 -4 -6 -4 32 0 39 2 55 4 38 2 -18 2 -50 0 -70z m2173 16 c0
-5 -4 -9 -10 -9 -5 0 -10 7 -10 16 0 8 5 12 10 9 6 -3 10 -10 10 -16z m5212
-130 l-6 -44 -7 40 c-4 22 -5 51 -2 64 6 24 6 24 14 4 4 -11 5 -40 1 -64z
m-4055 -141 c-2 -13 -4 -3 -4 22 0 25 2 35 4 23 2 -13 2 -33 0 -45z m13 -79
c0 -10 -4 -19 -10 -19 -5 0 -10 12 -10 26 0 14 4 23 10 19 6 -3 10 -15 10 -26z
m70 21 c0 -5 -4 -10 -10 -10 -5 0 -10 5 -10 10 0 6 5 10 10 10 6 0 10 -4 10
-10z m-5383 -247 c-2 -16 -4 -3 -4 27 0 30 2 43 4 28 2 -16 2 -40 0 -55z m2
-538 c-3 -33 -6 68 -6 225 l1 285 6 -225 c3 -124 3 -252 -1 -285z m8868 273
c-3 -7 -5 -2 -5 12 0 14 2 19 5 13 2 -7 2 -19 0 -25z m0 -260 c-3 -7 -5 -2 -5
12 0 14 2 19 5 13 2 -7 2 -19 0 -25z"/>
<path d="M4990 9494 l0 -277 35 6 c113 18 191 178 166 336 -16 102 -59 165
-133 196 -72 30 -68 46 -68 -261z"/>
<path d="M4216 9455 c-10 -82 -26 -224 -37 -315 -10 -91 -21 -184 -24 -207
l-6 -43 86 0 86 0 -6 43 c-3 23 -23 184 -44 357 l-37 315 -18 -150z"/>
<path d="M8341 8464 c0 -11 3 -14 6 -6 3 7 2 16 -1 19 -3 4 -6 -2 -5 -13z"/>
<path d="M9025 7335 c-22 -13 -53 -32 -70 -41 -26 -15 -75 -50 -140 -99 -10
-8 -25 -15 -31 -15 -7 0 -15 -4 -18 -8 -3 -5 27 -17 67 -26 89 -22 238 -92
297 -141 35 -29 83 -79 101 -105 l16 -24 24 23 c22 21 22 23 4 20 -23 -4 -77
29 -69 42 3 5 -2 9 -10 9 -19 0 -21 16 -3 23 8 3 2 13 -16 31 -27 25 -40 31
-61 27 -19 -4 -25 28 -25 131 0 106 -8 178 -20 178 -3 0 -24 -11 -46 -25z"/>
<path d="M9245 6930 c3 -5 8 -10 11 -10 2 0 4 5 4 10 0 6 -5 10 -11 10 -5 0
-7 -4 -4 -10z"/>
<path d="M8729 6428 c-30 -34 -59 -68 -64 -76 -9 -11 -31 -12 -130 -3 -225 19
-271 21 -255 11 8 -5 26 -10 39 -10 24 0 24 0 5 -15 -17 -13 -16 -13 13 -3 18
7 34 10 37 8 2 -3 16 -90 30 -195 15 -104 31 -219 36 -255 5 -36 37 -272 70
-525 33 -253 63 -470 65 -481 4 -18 15 -23 62 -29 32 -3 135 -17 230 -31 190
-27 212 -24 238 25 24 46 19 114 -35 493 -60 419 -65 448 -101 513 -49 90 -74
296 -54 447 7 51 5 62 -19 102 -29 49 -70 86 -96 86 -9 0 -41 -28 -71 -62z"/>
<path d="M8241 6314 c0 -11 3 -14 6 -6 3 7 2 16 -1 19 -3 4 -6 -2 -5 -13z"/>
<path d="M1624 8356 c-7 -18 12 -46 30 -46 6 0 11 12 10 28 -1 30 -30 43 -40
18z"/>
<path d="M1160 7273 c0 -157 -11 -573 -16 -600 -4 -18 -10 -30 -15 -27 -5 3
-16 -13 -25 -35 -9 -23 -20 -39 -24 -36 -4 3 -13 -2 -20 -9 -9 -12 -4 -17 29
-27 23 -7 43 -10 45 -8 2 2 18 45 36 94 70 192 144 306 266 406 41 34 74 64
74 68 0 5 -55 39 -205 125 -27 16 -67 44 -88 62 -20 19 -42 34 -47 34 -6 0
-10 -21 -10 -47z"/>
<path d="M840 6666 c0 -14 5 -26 10 -26 6 0 10 9 10 19 0 11 -4 23 -10 26 -6
4 -10 -5 -10 -19z"/>
<path d="M932 6480 c0 -14 2 -19 5 -12 2 6 2 18 0 25 -3 6 -5 1 -5 -13z"/>
<path d="M920 6434 c0 -5 -7 -56 -15 -114 -8 -58 -14 -118 -14 -135 1 -16 10
33 20 109 10 77 16 142 14 145 -3 2 -5 0 -5 -5z"/>
<path d="M5108 6900 c-7 -43 -4 -59 8 -48 3 3 4 26 2 49 l-3 44 -7 -45z"/>
<path d="M2540 6666 c0 -2 7 -7 16 -10 8 -3 12 -2 9 4 -6 10 -25 14 -25 6z"/>
<path d="M6356 5859 c-5 -14 -26 -252 -26 -289 0 -11 7 -20 15 -20 11 0 13
-10 9 -47 -2 -27 -18 -201 -35 -388 -17 -187 -35 -376 -39 -420 -30 -284 -51
-532 -48 -563 3 -35 4 -36 48 -38 25 -1 146 -7 269 -13 123 -7 226 -10 228 -7
3 3 -2 26 -11 53 -8 26 -24 86 -35 133 -33 143 -41 173 -57 223 -9 26 -19 47
-23 47 -4 0 -6 -25 -3 -56 4 -54 4 -56 -16 -45 -15 8 -20 20 -20 43 1 18 -6
65 -14 103 -32 144 -32 145 -2 145 l27 0 -7 73 c-4 39 -16 133 -27 207 -10 74
-19 150 -19 168 0 41 -26 43 -35 2 -6 -28 -25 -52 -25 -32 0 5 -9 52 -20 105
-11 53 -43 214 -70 358 -27 144 -52 264 -54 267 -3 3 -8 -1 -10 -9z"/>
<path d="M4813 4123 c-7 -3 -13 -9 -13 -14 0 -6 4 -8 9 -5 5 4 11 0 14 -6 2
-7 8 -10 12 -6 10 10 -8 36 -22 31z"/>
<path d="M2418 4073 c7 -3 16 -2 19 1 4 3 -2 6 -13 5 -11 0 -14 -3 -6 -6z"/>
<path d="M8655 2890 c3 -5 8 -10 11 -10 2 0 4 5 4 10 0 6 -5 10 -11 10 -5 0
-7 -4 -4 -10z"/>
<path d="M5020 2050 c0 -5 7 -10 16 -10 8 0 12 5 9 10 -3 6 -10 10 -16 10 -5
0 -9 -4 -9 -10z"/>
<path d="M5070 1838 c0 -79 4 -138 9 -138 5 0 11 -10 13 -22 2 -13 2 38 1 112
-1 89 1 120 6 90 l8 -45 1 40 c0 36 -14 105 -17 80 -1 -5 -6 -3 -11 5 -7 10
-10 -30 -10 -122z"/>
<path d="M5102 1790 c0 -14 2 -19 5 -12 2 6 2 18 0 25 -3 6 -5 1 -5 -13z"/>
<path d="M7800 1740 c-46 -27 -85 -50 -87 -50 -2 0 -81 -46 -176 -101 -95 -56
-223 -131 -286 -166 -63 -36 -131 -76 -152 -89 -21 -13 -41 -24 -44 -24 -3 0
-45 -24 -93 -53 -48 -30 -143 -87 -211 -127 l-124 -72 7 -357 c7 -352 13 -434
27 -361 4 23 7 2 9 -65 2 -115 16 -183 20 -100 3 48 3 49 10 15 9 -41 7 -67
15 275 9 345 17 495 26 495 5 0 9 -166 9 -387 0 -236 5 -414 11 -453 6 -36 12
-77 12 -93 l0 -27 283 0 284 0 1 158 c0 86 2 180 4 207 2 28 4 88 5 134 1 51
6 78 11 70 9 -15 12 -162 9 -416 l-2 -153 95 0 96 0 4 53 3 52 2 -52 2 -53
190 0 189 0 1 692 c0 423 -4 730 -10 788 -6 52 -15 133 -19 180 -7 74 -8 61
-10 -107 -1 -130 -4 -193 -12 -193 -7 0 -10 66 -7 215 2 118 0 215 -3 215 -3
0 -43 -22 -89 -50z m-425 -467 c-5 -12 -9 -14 -12 -5 -3 6 -16 12 -29 12 -30
0 -31 18 -1 45 l22 22 14 -29 c7 -15 10 -35 6 -45z m-129 -30 c-10 -10 -19 5
-10 18 6 11 8 11 12 0 2 -7 1 -15 -2 -18z m511 -569 c6 -286 0 -420 -16 -409
-4 2 -11 67 -15 144 -8 170 3 586 16 573 5 -5 12 -144 15 -308z m-655 1 l17
-45 -40 -40 c-32 -32 -46 -39 -65 -34 -18 5 -24 2 -24 -10 0 -9 -7 -16 -15
-16 -8 0 -15 -4 -15 -10 0 -5 -7 -10 -15 -10 -8 0 -15 3 -15 8 0 10 38 42 50
42 5 0 15 10 21 23 7 12 18 26 26 30 7 5 11 12 8 18 -4 5 0 9 8 9 17 0 27 21
27 56 0 37 14 28 32 -21z m-48 -511 c3 -8 2 -12 -4 -9 -6 3 -10 10 -10 16 0
14 7 11 14 -7z"/>
<path d="M2486 1388 c2 -178 9 -406 15 -508 6 -102 9 -275 8 -385 -2 -110 -2
-266 -1 -347 l2 -148 377 0 376 0 -7 132 c-3 73 -9 205 -11 293 -5 192 -18
693 -19 787 -2 78 -11 90 -116 143 -60 31 -337 191 -440 256 -25 16 -63 38
-84 50 -22 12 -46 28 -54 35 -7 8 -22 14 -32 14 -19 0 -19 -11 -14 -322z"/>
<path d="M5126 1575 c4 -8 8 -15 10 -15 2 0 4 7 4 15 0 8 -4 15 -10 15 -5 0
-7 -7 -4 -15z"/>
<path d="M4721 1347 c-1 -36 3 -56 9 -52 12 7 12 49 0 85 -6 19 -8 11 -9 -33z"/>
<path d="M7982 1170 c0 -19 2 -27 5 -17 2 9 2 25 0 35 -3 9 -5 1 -5 -18z"/>
<path d="M5093 1060 c0 -25 2 -35 4 -22 2 12 2 32 0 45 -2 12 -4 2 -4 -23z"/>
<path d="M3337 975 c-9 -95 -11 -264 -3 -273 4 -3 11 0 16 8 11 17 12 211 1
285 l-7 50 -7 -70z"/>
<path d="M5955 1030 c-3 -5 -1 -10 4 -10 6 0 11 5 11 10 0 6 -2 10 -4 10 -3 0
-8 -4 -11 -10z"/>
<path d="M6525 942 c1 -32 -1 -76 -5 -97 -6 -31 -8 -19 -9 55 -1 73 -4 91 -13
82 -29 -29 -21 -239 9 -228 7 3 13 0 13 -6 0 -8 3 -8 9 -3 5 6 11 65 15 133 5
101 4 122 -8 122 -10 0 -13 -14 -11 -58z"/>
<path d="M7983 920 c0 -25 2 -35 4 -22 2 12 2 32 0 45 -2 12 -4 2 -4 -23z"/>
<path d="M6404 928 c-4 -7 -9 -27 -11 -45 -3 -25 0 -31 11 -27 8 3 16 -2 19
-13 3 -10 5 8 6 40 1 54 -9 72 -25 45z"/>
<path d="M6343 896 c-14 -6 -23 -19 -22 -31 1 -17 2 -17 6 -2 7 28 20 19 28
-19 8 -46 17 -38 21 21 4 48 2 49 -33 31z"/>
<path d="M7980 843 c-1 -5 -3 -43 -6 -85 -4 -54 -3 -78 5 -78 7 0 11 30 11 85
0 47 -2 85 -5 85 -3 0 -5 -3 -5 -7z"/>
<path d="M4845 690 c3 -5 8 -10 11 -10 2 0 4 5 4 10 0 6 -5 10 -11 10 -5 0 -7
-4 -4 -10z"/>
<path d="M5865 617 c-18 -11 -20 -22 -19 -102 1 -107 7 -131 34 -131 19 0 25
9 21 30 -1 4 3 14 9 21 10 12 8 43 -6 128 -4 24 -2 37 5 37 6 0 11 5 11 11 0
5 -4 7 -10 4 -5 -3 -10 -1 -10 4 0 14 -10 13 -35 -2z"/>
<path d="M5797 573 c-4 -3 -7 -63 -6 -132 0 -82 4 -119 9 -106 8 17 12 245 6
245 -2 0 -6 -3 -9 -7z"/>
<path d="M7972 480 l1 -85 9 67 c6 45 6 74 -1 85 -8 13 -10 -4 -9 -67z"/>
<path d="M5716 532 c-3 -5 -4 -42 -2 -83 2 -41 4 -96 5 -122 0 -29 5 -46 11
-42 13 8 13 255 1 255 -6 0 -12 -4 -15 -8z"/>
<path d="M5876 355 c-17 -13 -20 -31 -24 -169 -3 -105 0 -156 7 -160 7 -5 11
8 11 38 0 25 5 46 10 46 6 0 10 -13 10 -30 0 -16 5 -30 10 -30 7 0 10 56 8
160 -1 88 -4 160 -8 160 -3 0 -14 -7 -24 -15z"/>
<path d="M7967 269 c-10 -123 -8 -269 2 -269 19 0 22 21 22 163 -1 173 -14
234 -24 106z"/>
<path d="M6407 279 c-6 -24 1 -49 14 -49 5 0 9 16 9 35 0 38 -14 47 -23 14z"/>
<path d="M6360 243 c0 -28 3 -34 10 -23 13 20 13 47 0 55 -6 4 -10 -9 -10 -32z"/>
<path d="M5791 138 c-1 -86 3 -138 9 -138 12 0 12 226 0 255 -5 13 -9 -31 -9
-117z"/>
<path d="M3337 224 c-7 -13 -9 -47 -8 -141 1 -76 3 -83 21 -83 18 0 20 7 20
84 0 77 -20 161 -33 140z"/>
<path d="M5936 173 c-9 -30 -5 -173 5 -173 5 0 9 43 9 95 0 93 -3 112 -14 78z"/>
<path d="M4130 143 c0 -14 -2 -15 -9 -4 -7 11 -14 9 -37 -13 -16 -14 -34 -26
-41 -26 -7 0 -13 -4 -13 -10 0 -5 -9 -10 -19 -10 -15 0 -20 -9 -23 -40 l-4
-40 78 0 78 0 0 80 c0 44 -2 80 -5 80 -3 0 -5 -8 -5 -17z m-43 -67 c-9 -9 -19
-11 -28 -5 -12 7 -11 9 2 9 9 0 20 8 24 18 5 11 9 13 12 5 3 -7 -2 -19 -10
-27z"/>
<path d="M4210 136 c0 -28 -16 -43 -23 -24 -3 7 -6 3 -6 -9 -2 -37 35 -30 43
8 8 42 8 49 -4 49 -5 0 -10 -11 -10 -24z"/>
<path d="M5716 94 c-10 -77 -8 -94 12 -94 16 0 18 7 14 63 -5 78 -17 93 -26
31z"/>
<path d="M640 81 c0 -27 -3 -56 -6 -65 -4 -11 -1 -16 10 -16 13 0 16 12 16 65
0 37 -4 65 -10 65 -5 0 -10 -22 -10 -49z"/>
<path d="M3313 40 c0 -25 2 -35 4 -22 2 12 2 32 0 45 -2 12 -4 2 -4 -23z"/>
<path d="M3940 30 c0 -17 5 -30 10 -30 6 0 10 13 10 30 0 17 -4 30 -10 30 -5
0 -10 -13 -10 -30z"/>
</g>
</svg>
